<svg xmlns="http://www.w3.org/2000/svg" viewBox="0 0 16 16" width="16" height="16">
  <!-- Minecraft grass block pixel art -->
  <!-- Green grass top layer -->
  <rect x="0" y="0" width="16" height="4" fill="#5D9B47"/>
  <rect x="0" y="0" width="2" height="2" fill="#79B35D"/>
  <rect x="4" y="0" width="2" height="2" fill="#79B35D"/>
  <rect x="10" y="0" width="2" height="2" fill="#79B35D"/>
  <rect x="14" y="2" width="2" height="2" fill="#4A8035"/>
  <rect x="6" y="2" width="2" height="2" fill="#4A8035"/>
  <!-- Grass hanging bits -->
  <rect x="2" y="4" width="2" height="2" fill="#5D9B47"/>
  <rect x="8" y="4" width="2" height="2" fill="#5D9B47"/>
  <rect x="12" y="4" width="2" height="2" fill="#5D9B47"/>
  <!-- Brown dirt -->
  <rect x="0" y="4" width="16" height="12" fill="#8B5A2B"/>
  <rect x="0" y="4" width="2" height="2" fill="#6B4423"/>
  <rect x="4" y="4" width="4" height="2" fill="#6B4423"/>
  <rect x="10" y="4" width="2" height="2" fill="#6B4423"/>
  <rect x="2" y="6" width="2" height="2" fill="#A0673C"/>
  <rect x="8" y="6" width="2" height="2" fill="#A0673C"/>
  <rect x="14" y="6" width="2" height="2" fill="#A0673C"/>
  <rect x="0" y="8" width="2" height="2" fill="#A0673C"/>
  <rect x="6" y="8" width="2" height="2" fill="#6B4423"/>
  <rect x="12" y="8" width="2" height="2" fill="#6B4423"/>
  <rect x="4" y="10" width="2" height="2" fill="#A0673C"/>
  <rect x="10" y="10" width="2" height="2" fill="#A0673C"/>
  <rect x="0" y="12" width="2" height="2" fill="#6B4423"/>
  <rect x="6" y="12" width="2" height="2" fill="#A0673C"/>
  <rect x="14" y="12" width="2" height="2" fill="#6B4423"/>
  <rect x="2" y="14" width="2" height="2" fill="#A0673C"/>
  <rect x="8" y="14" width="2" height="2" fill="#6B4423"/>
  <rect x="12" y="14" width="2" height="2" fill="#A0673C"/>
</svg>